<?xml version="1.0" standalone="no"?>
<!DOCTYPE svg PUBLIC "-//W3C//DTD SVG 20010904//EN"
 "http://www.w3.org/TR/2001/REC-SVG-20010904/DTD/svg10.dtd">
<svg version="1.0" xmlns="http://www.w3.org/2000/svg"
 width="320.000000pt" height="320.000000pt" viewBox="0 0 320.000000 320.000000"
 preserveAspectRatio="xMidYMid meet">

<g transform="translate(0.000000,320.000000) scale(0.100000,-0.100000)"
fill="#000000" stroke="none">
<path d="M422 2123 c3 -207 3 -208 26 -211 l22 -3 0 190 0 191 1130 0 1130 0
0 -183 c0 -101 3 -186 6 -189 3 -3 14 -4 25 -1 18 5 19 16 19 209 l0 204
-1180 0 -1180 0 2 -207z"/>
<path d="M1300 1811 l0 -331 193 0 c190 0 193 0 252 28 68 33 127 92 159 161
32 70 30 217 -3 286 -32 63 -92 124 -156 155 -47 23 -61 25 -247 28 l-198 4 0
-331z m376 150 c126 -58 135 -239 13 -301 -30 -16 -58 -20 -133 -20 l-95 0 -3
160 c-2 88 -1 165 0 170 6 18 173 11 218 -9z"/>
<path d="M732 1811 c-89 -175 -162 -321 -162 -325 0 -3 38 -6 84 -6 l84 0 78
155 c44 85 81 155 84 155 3 0 40 -70 83 -155 l77 -155 85 0 c47 0 85 3 85 6 0
11 -325 644 -331 644 -3 0 -79 -143 -167 -319z"/>
<path d="M2010 1805 l0 -325 75 0 75 0 0 165 c0 91 3 165 6 165 4 0 40 -25 80
-56 47 -36 77 -53 86 -48 7 4 41 30 74 56 34 26 64 48 68 48 3 0 6 -74 6 -165
l0 -165 80 0 80 0 0 325 c0 179 -2 325 -5 325 -2 0 -72 -52 -154 -115 -82 -63
-154 -115 -159 -115 -5 0 -78 52 -161 115 l-151 116 0 -326z"/>
<path d="M422 1268 l3 -213 1175 0 1175 0 0 210 c0 203 -1 210 -20 210 -19 0
-20 -8 -23 -187 l-2 -188 -1130 0 -1130 0 0 190 0 190 -25 0 -25 0 2 -212z"/>
<path d="M610 1397 c-37 -19 -56 -60 -45 -94 13 -37 64 -63 108 -54 28 6 32
11 35 44 3 35 2 37 -27 37 -17 0 -31 -4 -31 -10 0 -5 7 -10 15 -10 8 0 15 -9
15 -20 0 -25 -35 -27 -68 -4 -47 33 -12 101 48 92 24 -4 30 -1 28 11 -4 20
-46 25 -78 8z"/>
<path d="M880 1325 c0 -50 4 -85 10 -85 6 0 10 11 10 24 0 39 20 42 49 7 14
-17 32 -31 39 -31 17 0 15 11 -9 36 -20 21 -20 24 -5 39 39 40 4 95 -61 95
l-33 0 0 -85z m78 26 c-2 -20 -8 -26 -28 -26 -16 0 -26 6 -28 18 -6 32 5 45
33 39 21 -4 26 -9 23 -31z"/>
<path d="M1470 1324 c0 -64 3 -85 13 -82 6 3 13 17 15 31 2 19 9 27 23 27 37
0 59 19 59 50 0 35 -31 60 -77 60 l-33 0 0 -86z m87 39 c7 -18 -15 -43 -38
-43 -14 0 -19 7 -19 28 0 16 3 31 6 34 9 10 45 -4 51 -19z"/>
<path d="M1740 1324 c0 -64 3 -85 13 -82 6 3 13 21 15 42 3 29 7 36 18 32 9
-3 24 -6 35 -6 15 0 19 -7 19 -35 0 -24 5 -35 15 -35 12 0 15 16 15 85 0 69
-3 85 -15 85 -10 0 -15 -11 -15 -35 0 -33 -2 -35 -35 -35 -33 0 -35 2 -35 35
0 24 -5 35 -15 35 -12 0 -15 -16 -15 -86z"/>
<path d="M2047 1403 c-4 -3 -7 -39 -7 -80 0 -58 3 -73 15 -73 12 0 15 16 15
80 0 73 -6 91 -23 73z"/>
<path d="M2285 1398 c-77 -41 -51 -147 37 -150 40 -1 58 7 58 28 0 11 -4 12
-19 4 -44 -23 -93 1 -93 46 0 34 25 54 69 54 35 0 44 14 17 24 -23 9 -46 7
-69 -6z"/>
<path d="M2556 1395 c-23 -23 -20 -32 20 -69 42 -39 39 -61 -8 -51 -22 5 -29
4 -26 -5 7 -21 43 -29 69 -16 37 18 35 43 -5 80 -43 39 -44 46 -10 46 16 0 24
5 22 13 -7 19 -44 20 -62 2z"/>
<path d="M1192 1335 c-18 -36 -32 -72 -32 -80 0 -21 17 -18 30 5 13 25 65 27
78 3 6 -9 17 -18 26 -19 14 -2 14 2 2 29 -26 61 -60 127 -66 127 -3 0 -20 -29
-38 -65z m52 -11 c9 -23 8 -24 -14 -24 -22 0 -23 1 -14 24 8 20 20 20 28 0z"/>
<path d="M712 848 l2 -53 3 49 c4 42 7 47 24 43 10 -3 17 -1 13 4 -3 5 -14 9
-25 9 -17 0 -19 -7 -17 -52z"/>
<path d="M871 848 c1 -29 4 -43 6 -31 2 13 13 24 26 26 l22 4 -22 2 c-35 2
-31 39 5 44 25 4 25 4 -5 6 l-33 1 1 -52z"/>
<path d="M1153 850 c0 -30 2 -43 4 -27 2 15 2 39 0 55 -2 15 -4 2 -4 -28z"/>
<path d="M1326 884 c-27 -27 -15 -85 19 -84 5 0 2 5 -7 11 -22 12 -23 52 -3
69 20 16 65 4 66 -18 0 -13 2 -13 6 -3 7 16 -23 41 -48 41 -10 0 -25 -7 -33
-16z"/>
<path d="M1907 882 c-28 -30 -16 -83 18 -82 5 0 2 5 -7 11 -38 22 -11 87 32
76 11 -3 18 -1 14 4 -9 15 -40 10 -57 -9z"/>
<path d="M2086 881 c-10 -11 -16 -28 -13 -38 4 -15 5 -15 6 3 1 24 16 39 46
47 19 4 19 5 -1 6 -11 0 -29 -8 -38 -18z"/>
<path d="M2280 885 c-15 -18 2 -45 27 -45 10 0 14 -7 10 -20 -3 -11 -1 -18 4
-14 17 10 9 35 -16 44 -31 12 -32 28 -2 40 15 6 17 9 6 9 -9 1 -22 -6 -29 -14z"/>
<path d="M2437 892 c6 -4 13 -28 16 -52 l4 -45 1 47 c2 35 6 48 20 51 9 3 1 5
-18 6 -19 0 -30 -3 -23 -7z"/>
<path d="M2156 877 c3 -10 9 -15 12 -12 3 3 0 11 -7 18 -10 9 -11 8 -5 -6z"/>
<path d="M1552 838 c-6 -17 -9 -34 -6 -37 2 -3 7 5 11 17 3 12 9 22 14 22 5 0
9 7 9 15 0 26 -15 16 -28 -17z"/>
<path d="M750 845 c7 -9 15 -13 17 -11 7 7 -7 26 -19 26 -6 0 -6 -6 2 -15z"/>
<path d="M1388 818 c-10 -10 -14 -18 -9 -18 10 0 36 29 30 34 -2 1 -12 -6 -21
-16z"/>
<path d="M2151 817 c-13 -21 -12 -21 5 -5 10 10 16 20 13 22 -3 3 -11 -5 -18
-17z"/>
<path d="M1580 821 c0 -5 5 -13 10 -16 6 -3 10 -2 10 4 0 5 -4 13 -10 16 -5 3
-10 2 -10 -4z"/>
<path d="M2087 809 c7 -7 15 -10 18 -7 3 3 -2 9 -12 12 -14 6 -15 5 -6 -5z"/>
</g>
</svg>
